# xmcd
#
# Track frame offsets:
#	150
#	17777
#	31292
#	49240
#	60902
#	71517
#	87532
#	105395
#	120027
#	136535
#
# Disc length: 2113 seconds
#
# Revision: 2
# Processed by: cddbd v1.5.1PL0 Copyright (c) Steve Scherf et al.
# Submitted via: audiograbber 1.83.01
#
DISCID=72083f0a
DTITLE=Diamond Rio - Unbelivable
DYEAR=1995
DGENRE=Country
TTITLE0=Two Pump Texaco
TTITLE1=Miss that Girl
TTITLE2=You're Gone
TTITLE3=What More Do You Want From Me
TTITLE4=Unbelivable
TTITLE5=Long Way Back
TTITLE6=I ThoughI'd seen Everything
TTITLE7=Hold Me Now
TTITLE8=I Know How The River Feels
TTITLE9=Start All Over Again
EXTD=
EXTT0=
EXTT1=
EXTT2=
EXTT3=
EXTT4=
EXTT5=
EXTT6=
EXTT7=
EXTT8=
EXTT9=
PLAYORDER=
